<?xml version="1.0" encoding="utf-8"?>
<!-- Generator: Adobe Illustrator 19.0.0, SVG Export Plug-In . SVG Version: 6.00 Build 0)  -->
<svg version="1.1" id="Layer_1" xmlns="http://www.w3.org/2000/svg" xmlns:xlink="http://www.w3.org/1999/xlink" x="0px" y="0px"
	 width="512px" height="512px" viewBox="-223 25 512 512" style="enable-background:new -223 25 512 512;" xml:space="preserve">
<style type="text/css">
	.st0{fill:#2A8FD3;}
</style>
<path id="calendar-6-icon" class="st0" d="M174.4,143.1c0,10-8.1,18.2-18.2,18.2s-18.2-8.1-18.2-18.2V97.4c0-10,8.1-18.2,18.2-18.2
	s18.2,8.1,18.2,18.2V143.1z M-71.1,97.3c0-10-8.1-18.2-18.2-18.2c-10,0-18.2,8.1-18.2,18.2V143c0,10,8.1,18.2,18.2,18.2
	c10,0,18.2-8.1,18.2-18.2V97.3z M196.4,123.9v18.6c0,22.1-18,40.1-40.1,40.1c-22.1,0-40.1-18-40.1-40.1v-18.6H-49.1v18.5
	c0,22.1-18,40.1-40.1,40.1c-22.1,0-40.1-18-40.1-40.1v-18.5H-173v359h412v-359L196.4,123.9L196.4,123.9z M199,442.9h-332V220.4h332
	V442.9z M17.9,412.1c42.3-75.8,71.7-114.8,111.7-149.8l-5.2-12c-48.6,30.3-74.8,53-114.4,98c-21.1-15-32.9-21.9-51.7-31l-16,14.8
	C-25.6,361.8-8.2,381.4,17.9,412.1z"/>
</svg>
